<svg width="80" height="80" viewBox="0 0 80 80" fill="none" xmlns="http://www.w3.org/2000/svg">
<path fill-rule="evenodd" clip-rule="evenodd" d="M40 34.16L35.9437 28.195C35.5562 27.625 34.7787 27.4763 34.2075 27.8638C33.6375 28.2525 33.4887 29.03 33.8762 29.6013L38.03 35.71L15.5087 43.0413L10.42 35.495C13.2937 34.5613 23.325 31.3013 23.325 31.3013C23.9812 31.0888 24.3412 30.3825 24.1275 29.7263C23.915 29.07 23.2087 28.7113 22.5525 28.9238C22.5525 28.9238 12.5212 32.1838 9.64749 33.1175C8.89999 33.36 8.31124 33.9388 8.05624 34.6813C7.79999 35.4225 7.90749 36.2425 8.34624 36.8925L13.4925 44.5213L7.61999 53.2276C7.18124 53.8788 7.07249 54.6975 7.32874 55.44C7.58374 56.1813 8.17374 56.7613 8.91999 57.0038L13.75 58.5726V67.6613C13.75 69.3176 14.8362 70.7775 16.4225 71.2525C21.445 72.76 35.5737 76.9988 38.9225 78.0025C39.625 78.2138 40.375 78.2138 41.0775 78.0025C44.4262 76.9988 58.555 72.76 63.5775 71.2525C65.1637 70.7775 66.25 69.3176 66.25 67.6613V58.5726L71.08 57.0038C71.8262 56.7613 72.4162 56.1813 72.6712 55.44C72.9275 54.6975 72.8187 53.8788 72.38 53.2276L66.5075 44.5213L71.6537 36.8925C72.0925 36.2425 72.2 35.4225 71.9437 34.6813C71.6887 33.9388 71.1 33.36 70.3525 33.1175L47.8575 25.8075C46.8 25.465 45.6425 25.86 45.0175 26.78L40 34.16ZM39.9787 54.8913L34.255 63.3363C33.6312 64.2588 32.4725 64.6563 31.4137 64.3125L16.25 59.385V67.6613C16.25 68.2138 16.6125 68.7001 17.1412 68.8588L39.6412 75.6088C39.7337 75.6363 39.83 75.6538 39.9262 75.6588C39.8425 71.775 39.935 59.8963 39.9787 54.8913ZM15.4087 56.4825L32.1862 61.9338L38.0325 53.3088L15.51 46.0013L9.69249 54.625L15.3625 56.4675C15.3787 56.4725 15.3937 56.4776 15.4087 56.4825ZM64.6375 56.4675L70.3075 54.625L64.49 46.0013L41.9675 53.3088L47.8137 61.9338L64.5912 56.4825C64.6062 56.4776 64.6212 56.4725 64.6375 56.4675ZM40 51.3188L60.9562 44.5188L40 37.6975V51.3188ZM69.58 35.495L64.4912 43.0413L41.97 35.71L47.085 28.1863L69.58 35.495ZM31.0825 36.1325C30.7112 35.6288 30.3975 35.1225 30.14 34.6163C29.8275 34.0013 29.0737 33.7563 28.4587 34.0688C27.8437 34.3813 27.5987 35.135 27.9112 35.75C28.2287 36.3725 28.6137 36.9963 29.07 37.615C29.4787 38.17 30.2612 38.2888 30.8175 37.88C31.3725 37.47 31.4912 36.6875 31.0825 36.1325ZM29.255 31.0313C29.2675 30.5275 29.3412 30.0388 29.4762 29.57C29.6662 28.9075 29.2825 28.2138 28.6187 28.0238C27.9562 27.8338 27.2625 28.2175 27.0725 28.8813C26.8812 29.5513 26.7737 30.25 26.755 30.9688C26.7387 31.6588 27.2837 32.2325 27.9737 32.2488C28.6637 32.2663 29.2375 31.7213 29.255 31.0313ZM31.1775 26.8563C31.4987 26.5588 31.8587 26.2838 32.2525 26.035C32.8362 25.6663 33.0112 24.8938 32.6437 24.3113C32.275 23.7275 31.5025 23.5525 30.9187 23.92C30.39 24.2538 29.91 24.6225 29.4787 25.0225C28.9725 25.4913 28.9425 26.2825 29.4112 26.7888C29.88 27.295 30.6712 27.325 31.1775 26.8563ZM35.8262 24.7C36.455 24.5838 37.1212 24.5088 37.8237 24.48C38.5137 24.45 39.0487 23.8663 39.02 23.1775C38.9912 22.4888 38.4075 21.9525 37.7175 21.9813C36.8925 22.0163 36.11 22.105 35.3712 22.2413C34.6937 22.3675 34.2437 23.02 34.37 23.6975C34.495 24.3763 35.1475 24.825 35.8262 24.7ZM42.3412 24.6263C43.4075 24.6388 44.4 24.6013 45.3212 24.52C46.0087 24.4588 46.5175 23.8513 46.4562 23.1638C46.395 22.4775 45.7875 21.9688 45.1 22.03C44.2562 22.1038 43.3475 22.1388 42.37 22.1263C41.68 22.1188 41.1137 22.6725 41.1062 23.3613C41.0975 24.0513 41.6512 24.6188 42.3412 24.6263ZM49.43 23.7538C50.6675 23.375 51.7125 22.89 52.5875 22.3338C53.1687 21.9625 53.3412 21.19 52.97 20.6075C52.6 20.0263 51.8262 19.8538 51.2437 20.225C50.54 20.6725 49.6962 21.0575 48.6987 21.3625C48.04 21.565 47.6675 22.2638 47.87 22.9238C48.0712 23.5838 48.7712 23.955 49.43 23.7538ZM55.7925 18.835C56.3825 17.615 56.6087 16.325 56.5512 15.0813C56.5187 14.3913 55.9325 13.8588 55.2437 13.8913C54.555 13.9238 54.0212 14.5088 54.0537 15.1975C54.0937 16.0425 53.9412 16.9188 53.5412 17.7475C53.2412 18.3688 53.5012 19.1175 54.1225 19.4175C54.7437 19.7175 55.4925 19.4563 55.7925 18.835ZM38.7187 8.27129C39.4962 4.62629 42.6637 2.92004 44.8575 2.98004C47.0475 3.04004 48.2662 4.86129 45.165 8.27129H46.9237C47.6137 8.27129 48.1737 8.83129 48.1737 9.52129C48.1737 10.2113 47.6137 10.7713 46.9237 10.7713H45.1887C48.26 14.165 47.0412 15.9763 44.8575 16.0375C42.6687 16.0975 39.51 14.3988 38.7237 10.7713H38.5537C37.865 10.7713 37.3037 10.2113 37.3037 9.52129C37.3037 8.83129 37.865 8.27129 38.5537 8.27129H38.7187ZM54.9962 10.6613C54.085 9.43004 52.8487 8.57254 51.5012 8.29629C50.825 8.15879 50.1637 8.59379 50.025 9.27004C49.8875 9.94629 50.3237 10.6075 50.9987 10.7463C51.7762 10.905 52.4612 11.4388 52.9875 12.15C53.3987 12.7038 54.1825 12.82 54.7362 12.41C55.2912 11.9988 55.4075 11.215 54.9962 10.6613Z" fill="#898989"/>
</svg>
